<?xml version="1.0" encoding="UTF-8"?>
<svg width="110px" height="31px" viewBox="0 0 110 31" version="1.1" xmlns="http://www.w3.org/2000/svg" xmlns:xlink="http://www.w3.org/1999/xlink">
    <title>Correct</title>
    <g id="Page-1" stroke="none" stroke-width="1" fill="none" fill-rule="evenodd">
        <g id="Correct">
            <path d="M11.5374834,-3.10752092e-16 L98.4625166,4.66128138e-16 C102.474351,-2.70833872e-16 103.929139,0.41771525 105.395806,1.20209717 C106.862472,1.98647908 108.013521,3.13752767 108.797903,4.60419433 C109.582285,6.070861 110,7.52564907 110,11.5374834 L110,19.4625166 C110,23.4743509 109.582285,24.929139 108.797903,26.3958057 C108.013521,27.8624723 106.862472,29.0135209 105.395806,29.7979028 C103.929139,30.5822847 102.474351,31 98.4625166,31 L11.5374834,31 C7.52564907,31 6.070861,30.5822847 4.60419433,29.7979028 C3.13752767,29.0135209 1.98647908,27.8624723 1.20209717,26.3958057 C0.41771525,24.929139 -9.63515542e-16,23.4743509 1.65829223e-15,19.4625166 L3.10752092e-16,11.5374834 C-1.80555915e-16,7.52564907 0.41771525,6.070861 1.20209717,4.60419433 C1.98647908,3.13752767 3.13752767,1.98647908 4.60419433,1.20209717 C6.070861,0.41771525 7.52564907,1.80555915e-16 11.5374834,-3.10752092e-16 Z" id="Rectangle" fill="#9BB1FF"></path>
            <text font-family="ArialRoundedMTBold, Arial Rounded MT Bold" font-size="12" font-weight="normal" fill="#000000">
                <tspan x="30" y="14">Correct</tspan>
            </text>
            <text id="Click-to-show-post" font-family="ArialRoundedMTBold, Arial Rounded MT Bold" font-size="8" font-weight="normal" fill="#000000" fill-opacity="0.291083916">
                <tspan x="30" y="25">Click to show post</tspan>
            </text>
            <circle id="Oval" fill="#5465FF" cx="15.5" cy="15.5" r="12.5"></circle>
            <g id="􀋃" transform="translate(7, 7)" fill="#9BB1FF" fill-rule="nonzero">
                <path d="M3.26170421,16.8402091 C3.4283409,16.9777588 3.61721952,17.0265053 3.82834008,16.9864487 C4.03946065,16.946392 4.26830362,16.8321102 4.514869,16.6436032 L8.49657352,13.5788099 L12.4846807,16.6436032 C12.7317483,16.8321102 12.9608423,16.946392 13.1719629,16.9864487 C13.3830834,17.0265053 13.572255,16.9777588 13.7394776,16.8402091 C13.9061979,16.7077376 14.0069248,16.5324733 14.0416582,16.3144163 C14.0763917,16.0963593 14.0458848,15.8379611 13.9501378,15.5392217 L12.3733246,10.6354999 L16.3935706,7.62113856 C16.6406382,7.43376976 16.8136357,7.24125707 16.9125631,7.04360049 C17.0114906,6.84594391 17.026472,6.64200523 16.9575073,6.43178443 C16.893397,6.22672941 16.766076,6.07317893 16.5755444,5.97113297 C16.3850128,5.86908702 16.1383846,5.82086582 15.8356599,5.82646937 L10.9014648,5.86087869 L9.40411994,0.929576914 C9.30887506,0.624708607 9.18684779,0.393562045 9.03803814,0.236137227 C8.88922848,0.0787124089 8.70874027,0 8.49657352,0 C8.28926108,0 8.11117911,0.0787124089 7.9623276,0.236137227 C7.8134761,0.393562045 7.69146976,0.624708607 7.59630857,0.929576914 L6.09971696,5.86087869 L1.16401532,5.82646937 C0.86179278,5.82086582 0.615415711,5.8689338 0.424884111,5.97067331 C0.234352511,6.07241282 0.107031537,6.22585386 0.0429211899,6.43099643 C-0.0265456355,6.64174256 -0.0116897783,6.84594391 0.0874887617,7.04360049 C0.186667302,7.24125707 0.359790348,7.43376976 0.606857901,7.62113856 L4.62710396,10.6354999 L3.05016517,15.5392217 C2.95450182,15.8379611 2.92416239,16.0963593 2.95914689,16.3144163 C2.99413139,16.5324733 3.09498383,16.7077376 3.26170421,16.8402091 Z" id="Path"></path>
            </g>
        </g>
    </g>
</svg>