<?xml version="1.0" encoding="UTF-8"?>
<svg width="110px" height="31px" viewBox="0 0 110 31" version="1.1" xmlns="http://www.w3.org/2000/svg" xmlns:xlink="http://www.w3.org/1999/xlink">
    <title>Unchecked</title>
    <g id="Page-1" stroke="none" stroke-width="1" fill="none" fill-rule="evenodd">
        <g id="Unchecked">
            <path d="M11.5374834,-3.10752092e-16 L98.4625166,4.66128138e-16 C102.474351,-2.70833872e-16 103.929139,0.41771525 105.395806,1.20209717 C106.862472,1.98647908 108.013521,3.13752767 108.797903,4.60419433 C109.582285,6.070861 110,7.52564907 110,11.5374834 L110,19.4625166 C110,23.4743509 109.582285,24.929139 108.797903,26.3958057 C108.013521,27.8624723 106.862472,29.0135209 105.395806,29.7979028 C103.929139,30.5822847 102.474351,31 98.4625166,31 L11.5374834,31 C7.52564907,31 6.070861,30.5822847 4.60419433,29.7979028 C3.13752767,29.0135209 1.98647908,27.8624723 1.20209717,26.3958057 C0.41771525,24.929139 -9.63515542e-16,23.4743509 1.65829223e-15,19.4625166 L3.10752092e-16,11.5374834 C-1.80555915e-16,7.52564907 0.41771525,6.070861 1.20209717,4.60419433 C1.98647908,3.13752767 3.13752767,1.98647908 4.60419433,1.20209717 C6.070861,0.41771525 7.52564907,1.80555915e-16 11.5374834,-3.10752092e-16 Z" id="Rectangle" fill="#FFEE80"></path>
            <text id="Correct" font-family="ArialRoundedMTBold, Arial Rounded MT Bold" font-size="12" font-weight="normal" fill="#000000">
                <tspan x="30" y="14">Unchecked</tspan>
            </text>
            <text id="Click-to-show-post" font-family="ArialRoundedMTBold, Arial Rounded MT Bold" font-size="8" font-weight="normal" fill="#000000" fill-opacity="0.291083916">
                <tspan x="30" y="24">May be wrong</tspan>
            </text>
            <circle id="Oval" fill="#FF7B00" cx="15.5" cy="15.5" r="12.5"></circle>
            <g id="􀅎" transform="translate(14.2614, 7.3811)" fill="#FFDD00" fill-rule="nonzero">
                <path d="M1.36289978,11.8013611 C1.63000997,11.8013611 1.84459686,11.7202326 2.00666046,11.5579758 C2.16872406,11.3957189 2.25342814,11.1777013 2.26077271,10.903923 L2.3502121,1.03224945 C2.3502121,1.02210236 2.35050201,1.01166534 2.35108185,1.00093842 C2.35166168,0.990211487 2.3519516,0.980354309 2.3519516,0.971366882 C2.3519516,0.675941467 2.25553004,0.440190633 2.06268692,0.26411438 C1.8698438,0.0880381266 1.63411713,0 1.3555069,0 C1.07689667,0 0.839454651,0.0880381266 0.643180847,0.26411438 C0.446907043,0.440190633 0.348770142,0.675941467 0.348770142,0.971366882 C0.348770142,0.980354309 0.3489151,0.990211487 0.349205017,1.00093842 C0.349494934,1.01166534 0.34992981,1.02210236 0.350509644,1.03224945 L0.464157104,10.903923 C0.466573079,11.1777013 0.548667908,11.3957189 0.710441589,11.5579758 C0.872215271,11.7202326 1.08970133,11.8013611 1.36289978,11.8013611 Z M1.35449219,16.7077713 C1.60188802,16.7077713 1.82751592,16.6468404 2.03137589,16.5249786 C2.23523585,16.4031169 2.39746857,16.2411499 2.51807404,16.0390778 C2.6386795,15.8370056 2.69898224,15.6128515 2.69898224,15.3666153 C2.69898224,15.1210556 2.6386795,14.8972397 2.51807404,14.6951675 C2.39746857,14.4930954 2.23523585,14.3325297 2.03137589,14.2134705 C1.82751592,14.0944112 1.60188802,14.0348816 1.35449219,14.0348816 C1.10661316,14.0348816 0.880574544,14.0944112 0.676376343,14.2134705 C0.472178141,14.3325297 0.3083992,14.4930954 0.18503952,14.6951675 C0.0616798401,14.8972397 0,15.1210556 0,15.3666153 C0,15.6128515 0.0616798401,15.8370056 0.18503952,16.0390778 C0.3083992,16.2411499 0.472178141,16.4031169 0.676376343,16.5249786 C0.880574544,16.6468404 1.10661316,16.7077713 1.35449219,16.7077713 Z" id="Shape"></path>
            </g>
        </g>
    </g>
</svg>