<?xml version="1.0" encoding="UTF-8"?>
<svg width="110px" height="31px" viewBox="0 0 110 31" version="1.1" xmlns="http://www.w3.org/2000/svg" xmlns:xlink="http://www.w3.org/1999/xlink">
    <title>Verified</title>
    <g id="Page-1" stroke="none" stroke-width="1" fill="none" fill-rule="evenodd">
        <g id="Verified">
            <path d="M11.5374834,-3.10752092e-16 L98.4625166,4.66128138e-16 C102.474351,-2.70833872e-16 103.929139,0.41771525 105.395806,1.20209717 C106.862472,1.98647908 108.013521,3.13752767 108.797903,4.60419433 C109.582285,6.070861 110,7.52564907 110,11.5374834 L110,19.4625166 C110,23.4743509 109.582285,24.929139 108.797903,26.3958057 C108.013521,27.8624723 106.862472,29.0135209 105.395806,29.7979028 C103.929139,30.5822847 102.474351,31 98.4625166,31 L11.5374834,31 C7.52564907,31 6.070861,30.5822847 4.60419433,29.7979028 C3.13752767,29.0135209 1.98647908,27.8624723 1.20209717,26.3958057 C0.41771525,24.929139 -9.63515542e-16,23.4743509 1.65829223e-15,19.4625166 L3.10752092e-16,11.5374834 C-1.80555915e-16,7.52564907 0.41771525,6.070861 1.20209717,4.60419433 C1.98647908,3.13752767 3.13752767,1.98647908 4.60419433,1.20209717 C6.070861,0.41771525 7.52564907,1.80555915e-16 11.5374834,-3.10752092e-16 Z" id="Rectangle" fill="#A3F7C0"></path>
            <text font-family="ArialRoundedMTBold, Arial Rounded MT Bold" font-size="12" font-weight="normal" fill="#000000">
                <tspan x="30" y="14">Verified</tspan>
            </text>
            <text id="Click-to-show-post" font-family="ArialRoundedMTBold, Arial Rounded MT Bold" font-size="8" font-weight="normal" fill="#000000" fill-opacity="0.291083916">
                <tspan x="30" y="24">Click to show post</tspan>
            </text>
            <circle id="Oval" fill="#00BE44" cx="15.5" cy="15.5" r="12.5"></circle>
            <g id="􀆅" transform="translate(9, 9)" fill="#A3F7C0" fill-rule="nonzero">
                <path d="M5.33224275,14 C5.71200459,14 6.00973328,13.8378679 6.22542883,13.5136037 L13.7786561,1.51784105 C13.8580857,1.38926277 13.9148338,1.27220465 13.9489003,1.16666667 C13.9829668,1.06112869 14,0.957849998 14,0.856830601 C14,0.60307417 13.9223134,0.396829962 13.7669403,0.238097977 C13.6115671,0.0793659924 13.4078963,0 13.1559279,0 C12.9776525,0 12.8300458,0.0356565366 12.7131078,0.10696961 C12.5961697,0.178282683 12.4808644,0.300910747 12.3671918,0.474853801 L5.29835278,11.8857061 L1.64048641,7.07784489 C1.43555799,6.79259259 1.18226576,6.64996645 0.880609717,6.64996645 C0.62361077,6.64996645 0.412592747,6.73206148 0.247555648,6.89625156 C0.0825185493,7.06044163 0,7.26941489 0,7.52317132 C0,7.63492794 0.0216886989,7.74630429 0.0650660968,7.85730035 C0.108443495,7.96829642 0.175936608,8.081686 0.267545436,8.19746908 L4.41575732,13.5105167 C4.67610997,13.8368389 4.98160511,14 5.33224275,14 Z" id="Path"></path>
            </g>
        </g>
    </g>
</svg>